<svg width="22" height="22" viewBox="0 0 22 22" fill="none" xmlns="http://www.w3.org/2000/svg">
<path fill-rule="evenodd" clip-rule="evenodd" d="M10.9996 4.27734C10.4933 4.27734 10.0829 4.68775 10.0829 5.19401V10.0829H5.19401C4.68775 10.0829 4.27734 10.4933 4.27734 10.9996C4.27734 11.5058 4.68775 11.9162 5.19401 11.9162H10.0829V16.8051C10.0829 17.3114 10.4933 17.7218 10.9996 17.7218C11.5058 17.7218 11.9162 17.3114 11.9162 16.8051V11.9162H16.8051C17.3114 11.9162 17.7218 11.5058 17.7218 10.9996C17.7218 10.4933 17.3114 10.0829 16.8051 10.0829H11.9162V5.19401C11.9162 4.68775 11.5058 4.27734 10.9996 4.27734Z" fill="#6B6B57"/>
<mask id="mask0" mask-type="alpha" maskUnits="userSpaceOnUse" x="4" y="4" width="14" height="14">
<path fill-rule="evenodd" clip-rule="evenodd" d="M10.9996 4.27734C10.4933 4.27734 10.0829 4.68775 10.0829 5.19401V10.0829H5.19401C4.68775 10.0829 4.27734 10.4933 4.27734 10.9996C4.27734 11.5058 4.68775 11.9162 5.19401 11.9162H10.0829V16.8051C10.0829 17.3114 10.4933 17.7218 10.9996 17.7218C11.5058 17.7218 11.9162 17.3114 11.9162 16.8051V11.9162H16.8051C17.3114 11.9162 17.7218 11.5058 17.7218 10.9996C17.7218 10.4933 17.3114 10.0829 16.8051 10.0829H11.9162V5.19401C11.9162 4.68775 11.5058 4.27734 10.9996 4.27734Z" fill="white"/>
</mask>
<g mask="url(#mask0)">
</g>
</svg>
