<svg width="77" height="68" viewBox="0 0 77 68" fill="none" xmlns="http://www.w3.org/2000/svg">
<path d="M38.8298 19.8582H5.04112C4.416 19.8579 3.79875 19.9974 3.23451 20.2665C2.67026 20.5356 2.17331 20.9274 1.78001 21.4132C1.3867 21.8991 1.107 22.4668 0.961354 23.0747C0.815712 23.6826 0.807817 24.3154 0.938247 24.9267C3.30713 35.9922 11.6836 61.7992 38.8191 67.9188C65.9652 61.7992 74.3364 35.9922 76.6999 24.9267C76.8304 24.3154 76.8225 23.6826 76.6768 23.0747C76.5312 22.4668 76.2515 21.8991 75.8582 21.4132C75.4649 20.9274 74.9679 20.5356 74.4037 20.2665C73.8394 19.9974 73.2222 19.8579 72.5971 19.8582H38.8298Z" fill="#F3F0F0"/>
<path fill-rule="evenodd" clip-rule="evenodd" d="M5.04047 21.5449C4.66679 21.5447 4.2978 21.6281 3.96051 21.789C3.62321 21.9498 3.32614 22.184 3.09103 22.4745C2.85592 22.7649 2.68871 23.1043 2.60165 23.4677C2.51462 23.8309 2.50987 24.209 2.58774 24.5743C2.58777 24.5745 2.58781 24.5746 2.58784 24.5748C4.92803 35.5053 13.0346 60.1563 38.8192 66.1882C64.615 60.1561 72.716 35.5036 75.0504 24.5744C75.1283 24.209 75.1235 23.8309 75.0365 23.4677C74.9495 23.1043 74.7822 22.7649 74.5471 22.4745C74.312 22.184 74.015 21.9498 73.6777 21.789C73.3404 21.6281 72.9714 21.5447 72.5977 21.5449L5.04047 21.5449ZM76.6999 24.9267C74.3364 35.9922 65.9652 61.7992 38.8191 67.9188C11.6836 61.7992 3.30713 35.9922 0.938247 24.9267C0.807817 24.3154 0.815712 23.6826 0.961354 23.0747C1.107 22.4668 1.3867 21.8991 1.78001 21.4132C2.17331 20.9274 2.67026 20.5356 3.23451 20.2665C3.79875 19.9974 4.416 19.8579 5.04112 19.8582H72.5971C73.2222 19.8579 73.8394 19.9974 74.4037 20.2665C74.9679 20.5356 75.4649 20.9274 75.8582 21.4132C76.2515 21.8991 76.5312 22.4668 76.6768 23.0747C76.8225 23.6826 76.8303 24.3154 76.6999 24.9267Z" fill="#9C9B7C"/>
<path d="M63.1054 14.9388C63.1675 14.3538 63.1059 13.7624 62.9245 13.2028C62.7431 12.6432 62.446 12.1281 62.0525 11.6908C61.659 11.2535 61.178 10.904 60.6406 10.6648C60.1031 10.4256 59.5214 10.3021 58.9332 10.3024H18.3847C17.7938 10.2976 17.2085 10.4177 16.6672 10.6549C16.126 10.8921 15.641 11.2411 15.244 11.6788C14.847 12.1166 14.5471 12.6333 14.3638 13.1951C14.1805 13.7569 14.118 14.3511 14.1804 14.9388C15.4929 27.1567 20.5828 59.8729 38.4829 67.7585V67.9133L38.6536 67.8332L38.8297 67.9133V67.7585C56.7457 59.8729 61.8196 27.1567 63.1054 14.9388Z" fill="#F3F0F0"/>
<path fill-rule="evenodd" clip-rule="evenodd" d="M61.4281 14.7607C61.4653 14.411 61.4284 14.0574 61.32 13.7229C61.2115 13.3884 61.0339 13.0805 60.7987 12.8191C60.5635 12.5577 60.2759 12.3487 59.9547 12.2057C59.6334 12.0627 59.2857 11.9889 58.934 11.9891L18.3778 11.9891L18.371 11.989C18.0177 11.9862 17.6678 12.058 17.3443 12.1998C17.0207 12.3416 16.7308 12.5502 16.4935 12.8119C16.2562 13.0736 16.0769 13.3824 15.9673 13.7183C15.8578 14.0539 15.8205 14.4088 15.8576 14.7598C16.5086 20.8188 18.0925 31.9079 21.7065 42.4251C25.2786 52.8206 30.6711 62.173 38.6418 65.9759L38.6427 65.9755L38.6578 65.9823C46.6432 62.1836 52.0397 52.8266 55.6085 42.4258C59.2173 31.9084 60.7905 20.819 61.428 14.7623L61.4281 14.7607ZM40.1696 67.1106C39.7595 67.3272 39.3422 67.5303 38.9177 67.7195C38.8884 67.7326 38.8591 67.7456 38.8297 67.7585V67.9133L38.6536 67.8332L38.4829 67.9133V67.7585C38.4523 67.7451 38.4218 67.7315 38.3913 67.7179C37.968 67.529 37.552 67.3262 37.1429 67.11C20.3266 58.2234 15.4596 26.8462 14.1804 14.9388C14.118 14.3511 14.1805 13.7569 14.3638 13.1951C14.5471 12.6333 14.847 12.1166 15.244 11.6788C15.641 11.2411 16.126 10.8921 16.6672 10.6549C17.2085 10.4177 17.7938 10.2976 18.3847 10.3024H58.9332C59.5214 10.3021 60.1031 10.4256 60.6406 10.6648C61.178 10.904 61.659 11.2535 62.0525 11.6908C62.446 12.1281 62.7431 12.6432 62.9245 13.2028C63.1059 13.7624 63.1675 14.3538 63.1054 14.9388C61.8522 26.8465 57.0009 58.2249 40.1696 67.1106Z" fill="#9C9B7C"/>
<path d="M38.8297 67.5559C47.8997 57.6909 50.2846 17.724 50.8395 4.36964C50.864 3.80456 50.7738 3.24037 50.5743 2.71111C50.3748 2.18184 50.0702 1.69846 49.6788 1.29013C49.2874 0.881799 48.8174 0.556971 48.2971 0.335241C47.7767 0.11351 47.2169 -0.00052894 46.6513 1.84437e-06H30.6453C30.0797 0.000252786 29.5199 0.11478 28.9996 0.336711C28.4794 0.558641 28.0093 0.883399 27.6177 1.29149C27.226 1.69959 26.9209 2.1826 26.7205 2.71155C26.5201 3.2405 26.4287 3.80448 26.4517 4.36964C26.9852 17.708 29.4128 57.6909 38.4669 67.5559V67.9187L38.6376 67.7427L38.8137 67.9187L38.8297 67.5559Z" fill="#F3F0F0"/>
<path fill-rule="evenodd" clip-rule="evenodd" d="M37.5567 66.4344C29.2482 54.9742 26.9669 17.2496 26.4517 4.36964C26.4287 3.80448 26.5201 3.2405 26.7205 2.71155C26.9209 2.1826 27.226 1.69959 27.6177 1.29149C28.0093 0.883399 28.4794 0.558641 28.9996 0.336711C29.5199 0.11478 30.0797 0.000252786 30.6453 1.84437e-06H46.6513C47.2169 -0.00052894 47.7767 0.11351 48.2971 0.335241C48.8174 0.556971 49.2874 0.881799 49.6788 1.29013C50.0702 1.69846 50.3748 2.18184 50.5743 2.71111C50.7738 3.24037 50.864 3.80456 50.8395 4.36964C50.3036 17.2683 48.0604 54.9943 39.735 66.4432C39.7334 66.4454 39.7318 66.4476 39.7302 66.4498C39.4552 66.8275 39.1736 67.1765 38.8852 67.4951C38.8667 67.5155 38.8482 67.5358 38.8297 67.5559L38.8137 67.9187L38.6376 67.7427L38.4669 67.9187V67.5559C38.4618 67.5504 38.4567 67.5448 38.4516 67.5393C38.1478 67.2068 37.8514 66.8404 37.5623 66.4422C37.5605 66.4396 37.5586 66.437 37.5567 66.4344ZM38.6492 65.0546C40.203 62.7548 41.6065 59.2813 42.8313 54.9411C44.3098 49.702 45.4628 43.4478 46.3573 37.0382C48.1454 24.2241 48.8776 10.9569 49.1542 4.29961L49.1543 4.2981L49.1544 4.29658C49.169 3.95907 49.1151 3.6221 48.996 3.30598C48.8768 2.98987 48.6949 2.70117 48.4611 2.45728C48.2274 2.21339 47.9466 2.01938 47.6358 1.88694C47.3251 1.75451 46.9907 1.6864 46.6529 1.68672L30.646 1.68672C30.6459 1.68672 30.6459 1.68672 30.6458 1.68672C30.6456 1.68672 30.6454 1.68672 30.6453 1.68672C30.3071 1.68697 29.9725 1.75549 29.6615 1.88817C29.3502 2.02095 29.0689 2.21525 28.8346 2.45941C28.6003 2.70357 28.4177 2.99256 28.2978 3.30903C28.178 3.6255 28.1233 3.96292 28.137 4.30105L28.1371 4.30222C28.4029 10.9483 29.1404 24.2154 30.9345 37.0314C31.832 43.4421 32.9881 49.6979 34.4681 54.9386C35.694 59.2796 37.0974 62.7541 38.6492 65.0546Z" fill="#9C9B7C"/>
<path fill-rule="evenodd" clip-rule="evenodd" d="M33.6384 28.0374C34.2277 28.0374 34.7054 28.5151 34.7054 29.1044V32.8925C34.7054 33.4818 34.2277 33.9596 33.6384 33.9596C33.049 33.9596 32.5713 33.4818 32.5713 32.8925V29.1044C32.5713 28.5151 33.049 28.0374 33.6384 28.0374Z" fill="#9C9B7C"/>
</svg>
