<svg xmlns="http://www.w3.org/2000/svg" width="91" height="30" fill="none" viewBox="0 0 91 30"><path fill="#FFDBA8" d="M16.7776 8.77148H1.85302C1.57691 8.77138 1.30426 8.833 1.05504 8.95185C0.805808 9.0707 0.586302 9.24376 0.412578 9.45837C0.238854 9.67298 0.115307 9.92372 0.0509758 10.1922C-0.0133551 10.4608 -0.0168423 10.7403 0.0407694 11.0103C1.08712 15.898 4.78704 27.297 16.7729 30.0001C28.7635 27.297 32.461 15.898 33.505 11.0103C33.5626 10.7403 33.5592 10.4608 33.4948 10.1922C33.4305 9.92372 33.3069 9.67298 33.1332 9.45837C32.9595 9.24376 32.74 9.0707 32.4908 8.95185C32.2415 8.833 31.9689 8.77138 31.6928 8.77148H16.7776Z"/><path fill="#FF974E" d="M27.5004 6.59852C27.5278 6.34014 27.5006 6.07888 27.4205 5.83172C27.3403 5.58455 27.2091 5.35701 27.0353 5.16387C26.8615 4.97073 26.649 4.81631 26.4116 4.71066C26.1743 4.605 25.9173 4.55047 25.6575 4.5506H7.74703C7.48602 4.54847 7.2275 4.60154 6.98842 4.70632C6.74935 4.81109 6.53512 4.96522 6.35978 5.15858C6.18444 5.35195 6.05195 5.58019 5.97099 5.82834C5.89003 6.07649 5.86243 6.33895 5.89 6.59852C6.46973 11.9952 8.71797 26.4461 16.6245 29.9292V29.9976L16.6999 29.9622L16.7777 29.9976V29.9292C24.6913 26.4461 26.9324 11.9952 27.5004 6.59852Z"/><path fill="#F26144" d="M16.7776 29.8397C20.7839 25.4823 21.8374 7.82875 22.0824 1.93009C22.0933 1.68049 22.0534 1.43129 21.9653 1.19751C21.8772 0.963728 21.7426 0.750219 21.5698 0.569857C21.3969 0.389494 21.1893 0.246017 20.9594 0.148077C20.7296 0.0501379 20.4823 -0.000233635 20.2325 8.14665e-07H13.1626C12.9127 0.000111657 12.6655 0.050699 12.4357 0.148727C12.2059 0.246754 11.9982 0.390201 11.8253 0.570458C11.6523 0.750715 11.5175 0.964065 11.429 1.1977C11.3405 1.43134 11.3001 1.68046 11.3102 1.93009C11.5459 7.82168 12.6182 25.4823 16.6174 29.8397V30L16.6928 29.9222L16.7706 30L16.7776 29.8397Z"/><path fill="#fff" d="M14.956 12.8554C14.956 12.5951 14.7449 12.384 14.4846 12.384C14.2243 12.384 14.0133 12.5951 14.0133 12.8554V14.5286C14.0133 14.7889 14.2243 14.9999 14.4846 14.9999C14.7449 14.9999 14.956 14.7889 14.956 14.5286V12.8554Z"/><path fill="#4B6962" d="M50.3762 7.20557L47.2961 14.3839H45.564L42.4862 7.20557H44.2325L46.4642 12.5292L48.7619 7.20557H50.3762Z"/><path fill="#4B6962" d="M51.1963 5.01631C51.198 4.87871 51.2275 4.74288 51.2829 4.61694C51.3384 4.49101 51.4187 4.37755 51.519 4.28338C51.6194 4.18921 51.7377 4.11625 51.8669 4.06887C51.9961 4.0215 52.1335 4.00068 52.2709 4.00767C52.8884 4.00767 53.3455 4.42479 53.3455 4.97389C53.3337 5.2475 53.218 5.5063 53.022 5.69764C52.8261 5.88899 52.5646 5.9985 52.2908 6.00391C52.017 6.00931 51.7514 5.9102 51.5481 5.72674C51.3448 5.54327 51.219 5.28923 51.1963 5.01631ZM51.432 7.20562H53.1122V14.3839H51.432V7.20562Z"/><path fill="#4B6962" d="M59.4635 7.12549V8.72565C59.3347 8.69961 59.2037 8.6862 59.0723 8.68558C57.795 8.68558 56.989 9.43735 56.989 10.9032V14.3839H55.3087V7.20561H56.9089V8.25432C57.392 7.50255 58.2663 7.12549 59.4635 7.12549Z"/><path fill="#4B6962" d="M65.4705 13.995C64.9991 14.3239 64.433 14.4895 63.8586 14.4664C62.2867 14.4664 61.3841 13.6321 61.3841 12.0461V8.60539H60.2058V7.25975H61.3841V5.61011H63.0644V7.25975H64.9874V8.60539H63.0644V12.0084C63.0644 12.7154 63.4155 13.0854 64.0589 13.0854C64.3975 13.0949 64.7295 12.9903 65.0016 12.7884L65.4705 13.995Z"/><path fill="#4B6962" d="M73.8059 7.20557V14.3839H72.2058V13.4695C71.92 13.7994 71.5641 14.0611 71.1641 14.2356C70.7641 14.4102 70.3301 14.493 69.8939 14.4782C68.0534 14.4782 66.802 13.4695 66.802 11.3061V7.20557H68.4823V11.0775C68.4823 12.3807 69.1021 13.0005 70.1626 13.0005C71.3409 13.0005 72.1256 12.2747 72.1256 10.8348V7.20557H73.8059Z"/><path fill="#4B6962" d="M82.0094 10.1773V14.3839H80.4234V13.5096C80.0204 14.1294 79.2451 14.4782 78.1658 14.4782C76.5161 14.4782 75.491 13.578 75.491 12.3266C75.491 11.1318 76.2969 10.1915 78.4745 10.1915H80.3291V10.0831C80.3291 9.1027 79.7376 8.52296 78.5428 8.52296C77.7586 8.51055 76.9926 8.75926 76.3653 9.22996L75.7054 8.00686C76.4713 7.41534 77.5907 7.11841 78.7431 7.11841C80.8311 7.12548 82.0094 8.10584 82.0094 10.1773ZM80.3291 12.1404V11.3014H78.5947C77.454 11.3014 77.143 11.7303 77.143 12.2441C77.143 12.8498 77.6544 13.2386 78.5145 13.2386C79.3441 13.2551 80.0558 12.878 80.3386 12.1404H80.3291Z"/><path fill="#4B6962" d="M84.1704 4.41064H85.8507V14.3839H84.1704V4.41064Z"/><path fill="#4B6962" d="M43.0636 22.0643C43.0636 19.9151 44.6755 18.395 46.9473 18.395C48.3448 18.395 49.4619 18.9748 50.011 20.0635L48.7195 20.8153C48.5363 20.5059 48.274 20.2508 47.9598 20.076C47.6455 19.9013 47.2904 19.8132 46.9308 19.8208C45.696 19.8208 44.7533 20.681 44.7533 22.0643C44.7533 23.4477 45.696 24.3102 46.9308 24.3102C47.2904 24.3178 47.6455 24.2297 47.9598 24.055C48.274 23.8802 48.5363 23.6251 48.7195 23.3157L50.011 24.0674C49.4595 25.1444 48.3425 25.7477 46.9473 25.7477C44.6755 25.7477 43.0636 24.2159 43.0636 22.0643Z"/><path fill="#4B6962" d="M51.3966 15.6802H53.0769V25.6535H51.3966V15.6802Z"/><path fill="#4B6962" d="M54.6913 22.0643C54.6913 19.9151 56.3032 18.395 58.509 18.395C60.7148 18.395 62.3386 19.9151 62.3386 22.0643C62.3386 24.2136 60.7408 25.7477 58.509 25.7477C56.2773 25.7477 54.6913 24.2159 54.6913 22.0643ZM60.6465 22.0643C60.6465 20.6951 59.7321 19.8208 58.509 19.8208C57.2859 19.8208 56.3881 20.6951 56.3881 22.0643C56.3881 23.4335 57.3001 24.3102 58.509 24.3102C59.718 24.3102 60.6465 23.4359 60.6465 22.0643Z"/><path fill="#4B6962" d="M63.1327 24.9416L63.7784 23.6643C64.5316 24.1241 65.3964 24.3686 66.2788 24.3713C67.3393 24.3713 67.7847 24.0767 67.7847 23.5795C67.7847 22.2079 63.3471 23.4993 63.3471 20.636C63.3471 19.2786 64.5702 18.3901 66.5074 18.3901C67.4501 18.3901 68.5506 18.6258 69.194 19.0099L68.5506 20.2872C67.9278 19.9209 67.2157 19.7341 66.4933 19.7476C65.4728 19.7476 64.9874 20.0846 64.9874 20.5559C64.9874 22.0076 69.4226 20.7161 69.4226 23.5253C69.4226 24.8685 68.1877 25.7428 66.1704 25.7428C64.9732 25.7476 63.7784 25.3988 63.1327 24.9416Z"/><path fill="#4B6962" d="M77.5978 22.6134H71.9654C72.1658 23.6597 73.0401 24.3337 74.2891 24.3337C74.6505 24.3481 75.011 24.2861 75.3468 24.1517C75.6826 24.0173 75.9863 23.8135 76.238 23.5537L77.1406 24.5883C76.4949 25.3542 75.491 25.7666 74.249 25.7666C71.8429 25.7666 70.2852 24.2206 70.2852 22.0832C70.2852 19.9457 71.857 18.395 73.9969 18.395C76.0943 18.395 77.6261 19.8608 77.6261 22.1067C77.6237 22.2411 77.6096 22.4414 77.5978 22.6134ZM71.9419 21.4964H76.0236C75.9741 21.0002 75.7365 20.5417 75.3596 20.2152C74.9826 19.8887 74.495 19.7189 73.9969 19.7407C73.4988 19.7212 73.0116 19.8901 72.6325 20.2137C72.2534 20.5373 72.0102 20.992 71.9513 21.4869L71.9419 21.4964Z"/><path fill="#4B6962" d="M83.5529 25.2646C83.0805 25.5932 82.5137 25.7586 81.9386 25.7359C80.3668 25.7359 79.4665 24.904 79.4665 23.318V19.8749H78.2882V18.5293H79.4665V16.8796H81.1468V18.5293H83.0675V19.8749H81.1468V23.2897C81.1468 23.9967 81.4956 24.3643 82.1413 24.3643C82.48 24.3744 82.8122 24.2698 83.084 24.0674L83.5529 25.2646Z"/><path fill="#4B6962" d="M84.1162 24.9416L84.7619 23.6643C85.5151 24.1241 86.3799 24.3686 87.2623 24.3713C88.3252 24.3713 88.7682 24.0767 88.7682 23.5795C88.7682 22.2079 84.333 23.4993 84.333 20.636C84.333 19.2786 85.5561 18.3901 87.4909 18.3901C88.4454 18.3901 89.5341 18.6258 90.1798 19.0099L89.5341 20.2872C88.9113 19.9209 88.1992 19.7341 87.4768 19.7476C86.4564 19.7476 85.9709 20.0846 85.9709 20.5559C85.9709 22.0076 90.4084 20.7161 90.4084 23.5253C90.4084 24.8685 89.1712 25.7428 87.1539 25.7428C85.9591 25.7476 84.7619 25.3988 84.1162 24.9416Z"/></svg>