<svg width="16" height="16" viewBox="0 0 16 16" fill="none" xmlns="http://www.w3.org/2000/svg">
<path d="M15.4999 5.38338V13.0917C15.4999 14.5875 14.2873 15.8 12.7915 15.8H3.20821C1.71244 15.8 0.499878 14.5875 0.499878 13.0917V5.38338H15.4999ZM4.04154 10.8C3.46625 10.8 2.99988 11.2664 2.99988 11.8417C2.99988 12.417 3.46625 12.8834 4.04154 12.8834C4.61684 12.8834 5.08321 12.417 5.08321 11.8417C5.08321 11.2664 4.61684 10.8 4.04154 10.8ZM7.99988 10.8C7.42458 10.8 6.95821 11.2664 6.95821 11.8417C6.95821 12.417 7.42458 12.8834 7.99988 12.8834C8.57517 12.8834 9.04154 12.417 9.04154 11.8417C9.04154 11.2664 8.57517 10.8 7.99988 10.8ZM4.04154 7.05005C3.46625 7.05005 2.99988 7.51642 2.99988 8.09172C2.99988 8.66701 3.46625 9.13338 4.04154 9.13338C4.61684 9.13338 5.08321 8.66701 5.08321 8.09172C5.08321 7.51642 4.61684 7.05005 4.04154 7.05005ZM7.99988 7.05005C7.42458 7.05005 6.95821 7.51642 6.95821 8.09172C6.95821 8.66701 7.42458 9.13338 7.99988 9.13338C8.57517 9.13338 9.04154 8.66701 9.04154 8.09172C9.04154 7.51642 8.57517 7.05005 7.99988 7.05005ZM11.9582 7.05005C11.3829 7.05005 10.9165 7.51642 10.9165 8.09172C10.9165 8.66701 11.3829 9.13338 11.9582 9.13338C12.5335 9.13338 12.9999 8.66701 12.9999 8.09172C12.9999 7.51642 12.5335 7.05005 11.9582 7.05005ZM12.7915 0.800049C14.2873 0.800049 15.4999 2.01261 15.4999 3.50838V4.13338H0.499878V3.50838C0.499878 2.01261 1.71244 0.800049 3.20821 0.800049H12.7915Z" fill="#F26144"/>
</svg>
