<svg width="28" height="28" viewBox="0 0 28 28" fill="none" xmlns="http://www.w3.org/2000/svg">
<circle r="14" transform="matrix(-1 0 0 1 14 14)" fill="#F26144"/>
<path fill-rule="evenodd" clip-rule="evenodd" d="M12.8207 9H16.1797C16.41 9 16.7123 9.14991 16.8541 9.33476L17.7771 10.6957C17.8673 10.8282 18.0172 10.9086 18.1773 10.9086H20.1623C20.6254 10.9086 21 11.2864 21 11.7549V18.4041C21 18.8717 20.6254 19.2507 20.1623 19.2507H8.83812C8.37498 19.2507 8 18.8725 8 18.4041V11.7549C8 11.2873 8.37498 10.9086 8.83812 10.9086H10.8312C10.986 10.9086 11.1311 10.8314 11.2188 10.7031L12.1459 9.33476C12.2881 9.15032 12.5916 9 12.8207 9ZM17.6455 11.9682C17.6455 12.2022 17.8332 12.392 18.0647 12.392C18.2967 12.392 18.484 12.2022 18.484 11.9682C18.484 11.7342 18.2967 11.5441 18.0647 11.5441C17.8332 11.5441 17.6455 11.7342 17.6455 11.9682ZM11.4121 14.8783C11.4121 16.6025 12.7948 18.0002 14.5007 18.0002C16.2066 18.0002 17.5889 16.6025 17.5889 14.8783C17.5889 13.1536 16.2066 11.7563 14.5007 11.7563C12.7948 11.7563 11.4121 13.1536 11.4121 14.8783ZM9.25745 9.42396H10.0968C10.3284 9.42396 10.5156 9.61247 10.5156 9.8481V10.2718H8.83819V9.8481C8.83819 9.61368 9.02466 9.42396 9.25745 9.42396ZM11.9738 14.8789C11.9738 13.4677 13.1047 12.3248 14.5003 12.3248C15.8959 12.3248 17.0268 13.4677 17.0268 14.8789C17.0268 16.2896 15.8959 17.4329 14.5003 17.4329C13.1047 17.4329 11.9738 16.2896 11.9738 14.8789Z" fill="white"/>
</svg>
