<svg xmlns="http://www.w3.org/2000/svg" width="16" height="15" fill="none" viewBox="0 0 16 15"><path fill="#F26144" d="M10.1975 9.59769C10.9706 9.59769 11.5972 10.2243 11.5972 10.9974L11.5964 11.7668C11.6897 13.5177 10.3879 14.4038 8.0515 14.4038C5.72491 14.4038 4.39894 13.5321 4.39894 11.7972V10.9974C4.39894 10.2243 5.02559 9.59769 5.79861 9.59769H10.1975ZM1.39966 5.59865L4.89962 5.59872C4.83384 5.85434 4.79885 6.12231 4.79885 6.39846C4.79885 7.29067 5.16408 8.09758 5.75318 8.67783L5.88279 8.79865L5.79861 8.79789C5.55759 8.79789 5.32562 8.83665 5.10861 8.90829C4.41698 9.1366 3.87719 9.6988 3.68009 10.404L3.65255 10.4047C1.32597 10.4047 0 9.53308 0 7.79813V6.99832C0 6.22531 0.626651 5.59865 1.39966 5.59865ZM14.5965 5.59865C15.3695 5.59865 15.9962 6.22531 15.9962 6.99832L15.9953 7.76779C16.0886 9.51864 14.7868 10.4047 12.4504 10.4047L12.3159 10.4033C12.1247 9.72037 11.6122 9.17166 10.9517 8.93058C10.7635 8.8619 10.5633 8.81818 10.3551 8.80344L10.1975 8.79789L10.1134 8.79865C10.778 8.21242 11.1973 7.3544 11.1973 6.39846C11.1973 6.12231 11.1623 5.85434 11.0965 5.59872L14.5965 5.59865ZM7.99808 3.99904C9.32324 3.99904 10.3975 5.0733 10.3975 6.39846C10.3975 7.72363 9.32324 8.79789 7.99808 8.79789C6.67291 8.79789 5.59865 7.72363 5.59865 6.39846C5.59865 5.0733 6.67291 3.99904 7.99808 3.99904ZM3.59914 0C4.9243 0 5.99856 1.07426 5.99856 2.39942C5.99856 3.72459 4.9243 4.79885 3.59914 4.79885C2.27397 4.79885 1.19971 3.72459 1.19971 2.39942C1.19971 1.07426 2.27397 0 3.59914 0ZM12.397 0C13.7222 0 14.7964 1.07426 14.7964 2.39942C14.7964 3.72459 13.7222 4.79885 12.397 4.79885C11.0719 4.79885 9.9976 3.72459 9.9976 2.39942C9.9976 1.07426 11.0719 0 12.397 0Z"/></svg>