<svg xmlns="http://www.w3.org/2000/svg" width="135" height="40" fill="none" viewBox="0 0 135 40"><path fill="#000" d="M130 0H5C2.23858 0 0 2.23858 0 5V35C0 37.7614 2.23858 40 5 40H130C132.761 40 135 37.7614 135 35V5C135 2.23858 132.761 0 130 0Z"/><path fill="#A6A6A6" d="M130 0.8C131.114 0.8 132.182 1.2425 132.97 2.03015C133.758 2.8178 134.2 3.88609 134.2 5V35C134.2 36.1139 133.758 37.1822 132.97 37.9698C132.182 38.7575 131.114 39.2 130 39.2H5C3.88609 39.2 2.8178 38.7575 2.03015 37.9698C1.2425 37.1822 0.8 36.1139 0.8 35V5C0.8 3.88609 1.2425 2.8178 2.03015 2.03015C2.8178 1.2425 3.88609 0.8 5 0.8H130ZM130 0H5C3.67392 0 2.40215 0.526784 1.46447 1.46447C0.526784 2.40215 0 3.67392 0 5L0 35C0 36.3261 0.526784 37.5979 1.46447 38.5355C2.40215 39.4732 3.67392 40 5 40H130C131.326 40 132.598 39.4732 133.536 38.5355C134.473 37.5979 135 36.3261 135 35V5C135 3.67392 134.473 2.40215 133.536 1.46447C132.598 0.526784 131.326 0 130 0V0Z"/><path fill="#fff" stroke="#fff" stroke-miterlimit="10" stroke-width=".2" d="M47.42 10.24C47.4364 10.6067 47.3784 10.973 47.2495 11.3167C47.1206 11.6604 46.9235 11.9745 46.67 12.24C46.3859 12.5333 46.0431 12.7633 45.664 12.9149C45.2848 13.0666 44.878 13.1365 44.47 13.12C44.0596 13.1291 43.6518 13.054 43.2717 12.8992C42.8915 12.7444 42.5472 12.5132 42.26 12.22C41.9637 11.9325 41.73 11.5869 41.5734 11.2049C41.4168 10.8229 41.3408 10.4127 41.35 10C41.3394 9.5856 41.4147 9.17349 41.5714 8.78967C41.728 8.40586 41.9625 8.05867 42.26 7.77001C42.7055 7.33469 43.2697 7.04074 43.8817 6.92509C44.4938 6.80945 45.1264 6.87726 45.7 7.12001C46.0606 7.26824 46.3822 7.49749 46.64 7.79001L46.11 8.32C45.9114 8.08078 45.6598 7.89114 45.3751 7.76616C45.0904 7.64118 44.7805 7.58429 44.47 7.60001C44.1576 7.59847 43.8482 7.66003 43.5602 7.78099C43.2722 7.90196 43.0116 8.07983 42.794 8.30394C42.5764 8.52806 42.4064 8.79381 42.294 9.08525C42.1816 9.37669 42.1292 9.68783 42.14 10C42.1334 10.4661 42.2651 10.9238 42.5183 11.3152C42.7716 11.7066 43.135 12.0142 43.5629 12.1993C43.9908 12.3843 44.4639 12.4385 44.9225 12.355C45.3812 12.2715 45.8048 12.054 46.14 11.73C46.4483 11.3961 46.6289 10.964 46.65 10.51H44.47V9.79001H47.38C47.4024 9.93906 47.4157 10.0893 47.42 10.24Z"/><path fill="#fff" stroke="#fff" stroke-miterlimit="10" stroke-width=".2" d="M52 7.74H49.3V9.64H51.76V10.36H49.3V12.26H52V13H48.52V7H52V7.74Z"/><path fill="#fff" stroke="#fff" stroke-miterlimit="10" stroke-width=".2" d="M55.28 13H54.51V7.74H52.83V7H57V7.74H55.28V13Z"/><path fill="#fff" stroke="#fff" stroke-miterlimit="10" stroke-width=".2" d="M59.9399 13V7H60.7099V13H59.9399Z"/><path fill="#fff" stroke="#fff" stroke-miterlimit="10" stroke-width=".2" d="M64.1301 13H63.3601V7.74H61.6801V7H65.8001V7.74H64.1301V13Z"/><path fill="#fff" stroke="#fff" stroke-miterlimit="10" stroke-width=".2" d="M73.61 12.22C73.3212 12.5091 72.9782 12.7384 72.6008 12.8948C72.2233 13.0513 71.8186 13.1318 71.41 13.1318C71.0014 13.1318 70.5968 13.0513 70.2193 12.8948C69.8418 12.7384 69.4988 12.5091 69.21 12.22C68.9192 11.9299 68.691 11.5832 68.5396 11.2013C68.3882 10.8195 68.3169 10.4106 68.33 10C68.3169 9.58944 68.3882 9.18054 68.5396 8.79867C68.691 8.4168 68.9192 8.07008 69.21 7.78001C69.4926 7.48281 69.8345 7.24824 70.2134 7.09148C70.5924 6.93473 71.0001 6.85928 71.41 6.87001C71.8194 6.86353 72.2258 6.94093 72.6042 7.09743C72.9825 7.25393 73.3248 7.48622 73.61 7.78001C73.8976 8.0725 74.1236 8.41964 74.2747 8.80093C74.4259 9.18223 74.4991 9.58995 74.49 10C74.5031 10.4106 74.4318 10.8195 74.2804 11.2013C74.1291 11.5832 73.9009 11.9299 73.61 12.22ZM69.78 11.72C69.993 11.9359 70.2468 12.1073 70.5266 12.2243C70.8065 12.3413 71.1067 12.4015 71.41 12.4015C71.7133 12.4015 72.0136 12.3413 72.2934 12.2243C72.5732 12.1073 72.827 11.9359 73.04 11.72C73.2615 11.493 73.435 11.2238 73.5502 10.9282C73.6653 10.6327 73.7196 10.317 73.71 10C73.7144 9.68016 73.6538 9.36275 73.5317 9.06708C73.4096 8.7714 73.2288 8.50362 73 8.28001C72.787 8.06413 72.5332 7.89272 72.2534 7.77572C71.9736 7.65873 71.6733 7.59848 71.37 7.59848C71.0667 7.59848 70.7665 7.65873 70.4867 7.77572C70.2068 7.89272 69.953 8.06413 69.74 8.28001C69.5257 8.51025 69.3595 8.78101 69.2513 9.07639C69.1431 9.37177 69.0951 9.68579 69.11 10C69.1004 10.317 69.1548 10.6327 69.2699 10.9282C69.385 11.2238 69.5585 11.493 69.78 11.72Z"/><path fill="#fff" stroke="#fff" stroke-miterlimit="10" stroke-width=".2" d="M75.58 13V7H76.51L79.43 11.67V10.51V7H80.2V13H79.4L76.35 8.11V9.26V13H75.58Z"/><path fill="#fff" d="M68.14 21.75C67.2974 21.752 66.4744 22.0038 65.7749 22.4735C65.0755 22.9432 64.531 23.6098 64.2104 24.389C63.8898 25.1682 63.8075 26.0249 63.9738 26.8509C64.1401 27.6769 64.5476 28.435 65.1448 29.0293C65.742 29.6237 66.502 30.0276 67.3287 30.1901C68.1555 30.3525 69.0118 30.2661 69.7895 29.9419C70.5671 29.6176 71.2311 29.0701 71.6976 28.3684C72.164 27.6668 72.412 26.8425 72.41 26C72.4181 25.4379 72.3131 24.88 72.1012 24.3593C71.8892 23.8387 71.5746 23.366 71.1762 22.9695C70.7778 22.573 70.3037 22.2606 69.7821 22.0511C69.2604 21.8416 68.702 21.7392 68.14 21.75ZM68.14 28.58C67.6236 28.6161 67.1082 28.496 66.6609 28.2354C66.2137 27.9747 65.8552 27.5856 65.632 27.1184C65.4088 26.6513 65.3314 26.1279 65.4097 25.6161C65.4879 25.1044 65.7184 24.6281 66.0709 24.249C66.4235 23.87 66.882 23.6058 67.3867 23.4908C67.8915 23.3758 68.4192 23.4152 68.9012 23.6041C69.3832 23.7929 69.7972 24.1224 70.0895 24.5497C70.3818 24.977 70.5387 25.4823 70.54 26C70.5561 26.328 70.5063 26.6559 70.3937 26.9644C70.2811 27.2729 70.1078 27.5557 69.8841 27.7962C69.6604 28.0366 69.3909 28.2299 69.0913 28.3645C68.7918 28.4991 68.4683 28.5724 68.14 28.58ZM58.82 21.75C57.9774 21.752 57.1544 22.0038 56.4549 22.4735C55.7555 22.9432 55.211 23.6098 54.8904 24.389C54.5698 25.1682 54.4875 26.0249 54.6538 26.8509C54.8201 27.6769 55.2276 28.435 55.8248 29.0293C56.422 29.6237 57.182 30.0276 58.0087 30.1901C58.8355 30.3525 59.6918 30.2661 60.4694 29.9419C61.2471 29.6176 61.9111 29.0701 62.3776 28.3684C62.844 27.6668 63.092 26.8425 63.09 26C63.0981 25.4379 62.9931 24.88 62.7811 24.3593C62.5692 23.8387 62.2546 23.366 61.8562 22.9695C61.4578 22.573 60.9837 22.2606 60.4621 22.0511C59.9404 21.8416 59.382 21.7392 58.82 21.75ZM58.82 28.58C58.3036 28.6161 57.7882 28.496 57.3409 28.2354C56.8937 27.9747 56.5352 27.5856 56.312 27.1184C56.0888 26.6513 56.0114 26.1279 56.0897 25.6161C56.1679 25.1044 56.3983 24.6281 56.7509 24.249C57.1035 23.87 57.562 23.6058 58.0667 23.4908C58.5715 23.3758 59.0992 23.4152 59.5812 23.6041C60.0632 23.7929 60.4772 24.1224 60.7695 24.5497C61.0618 24.977 61.2187 25.4823 61.22 26C61.2361 26.328 61.1864 26.6559 61.0737 26.9644C60.9611 27.2729 60.7878 27.5557 60.5641 27.7962C60.3404 28.0366 60.0709 28.2299 59.7713 28.3645C59.4718 28.4991 59.1483 28.5724 58.82 28.58ZM47.74 23.06V24.86H52.06C51.9922 25.7078 51.6398 26.5078 51.06 27.13C50.6266 27.5715 50.1054 27.9171 49.5301 28.1445C48.9547 28.3719 48.3381 28.476 47.72 28.45C46.4469 28.45 45.226 27.9443 44.3259 27.0441C43.4257 26.1439 42.92 24.923 42.92 23.65C42.92 22.377 43.4257 21.1561 44.3259 20.2559C45.226 19.3557 46.4469 18.85 47.72 18.85C48.9404 18.8318 50.1189 19.2953 51 20.14L52.27 18.87C51.674 18.2805 50.9663 17.8159 50.1884 17.5034C49.4106 17.1909 48.5782 17.0367 47.74 17.05C46.851 17.0154 45.9641 17.1606 45.1326 17.477C44.3011 17.7933 43.5419 18.2743 42.9007 18.891C42.2595 19.5078 41.7494 20.2476 41.401 21.0662C41.0525 21.8848 40.8729 22.7653 40.8729 23.655C40.8729 24.5447 41.0525 25.4252 41.401 26.2438C41.7494 27.0624 42.2595 27.8022 42.9007 28.419C43.5419 29.0357 44.3011 29.5167 45.1326 29.833C45.9641 30.1494 46.851 30.2946 47.74 30.26C48.5954 30.2942 49.4484 30.147 50.2429 29.8282C51.0374 29.5093 51.7555 29.026 52.35 28.41C53.4001 27.2564 53.9596 25.7392 53.91 24.18C53.9136 23.8047 53.8834 23.4299 53.82 23.06H47.74ZM93.05 24.46C92.7892 23.6927 92.3015 23.0228 91.6515 22.5388C91.0015 22.0549 90.2198 21.7798 89.41 21.75C88.863 21.7489 88.3216 21.8601 87.8192 22.0765C87.3169 22.293 86.8643 22.6102 86.4894 23.0085C86.1145 23.4069 85.8252 23.8778 85.6396 24.3924C85.4539 24.9069 85.3758 25.4541 85.41 26C85.4014 26.9128 85.6884 27.804 86.2281 28.5403C86.7678 29.2766 87.5312 29.8185 88.4042 30.0851C89.2773 30.3518 90.2132 30.3288 91.0722 30.0197C91.9311 29.7106 92.667 29.1319 93.17 28.37L91.72 27.37C91.5038 27.7303 91.1972 28.0278 90.8306 28.233C90.464 28.4383 90.0501 28.5441 89.63 28.54C89.1965 28.5579 88.7678 28.4443 88.4002 28.214C88.0325 27.9838 87.7431 27.6477 87.57 27.25L93.26 24.9L93.05 24.46ZM87.25 25.88C87.2297 25.5699 87.2717 25.2589 87.3734 24.9652C87.4752 24.6716 87.6347 24.4012 87.8424 24.1701C88.0502 23.9391 88.3022 23.7519 88.5834 23.6196C88.8646 23.4873 89.1695 23.4127 89.48 23.4C89.8011 23.3794 90.1212 23.4538 90.4004 23.6138C90.6795 23.7739 90.9054 24.0125 91.05 24.3L87.25 25.88ZM82.63 30H84.5V17.5H82.63V30ZM79.57 22.7H79.5C79.216 22.3909 78.8692 22.1463 78.4829 21.9824C78.0965 21.8185 77.6795 21.7393 77.26 21.75C76.1672 21.803 75.1366 22.2744 74.382 23.0666C73.6273 23.8587 73.2063 24.9109 73.2063 26.005C73.2063 27.0991 73.6273 28.1513 74.382 28.9434C75.1366 29.7356 76.1672 30.207 77.26 30.26C77.6839 30.2685 78.1046 30.1833 78.4918 30.0104C78.879 29.8376 79.2233 29.5813 79.5 29.26H79.57V29.87C79.57 31.5 78.7 32.37 77.3 32.37C76.8323 32.3597 76.3782 32.2107 75.9954 31.9418C75.6126 31.673 75.3183 31.2964 75.15 30.86L73.53 31.53C73.8295 32.2822 74.3502 32.9259 75.0234 33.3758C75.6965 33.8258 76.4904 34.0609 77.3 34.05C79.49 34.05 81.3 32.76 81.3 29.62V22H79.57V22.7ZM77.42 28.58C76.7648 28.5391 76.1498 28.2501 75.7003 27.7717C75.2508 27.2932 75.0005 26.6615 75.0005 26.005C75.0005 25.3485 75.2508 24.7168 75.7003 24.2383C76.1498 23.7599 76.7648 23.4708 77.42 23.43C77.7402 23.4438 78.0544 23.5219 78.3438 23.6596C78.6333 23.7974 78.8921 23.9919 79.1048 24.2317C79.3175 24.4715 79.4798 24.7516 79.5821 25.0554C79.6843 25.3591 79.7244 25.6804 79.7 26C79.7273 26.3207 79.6892 26.6436 79.5881 26.9492C79.4871 27.2547 79.3251 27.5366 79.1119 27.7778C78.8988 28.019 78.639 28.2144 78.3482 28.3523C78.0574 28.4902 77.7416 28.5676 77.42 28.58ZM101.81 17.5H97.33V30H99.2V25.26H101.81C102.343 25.2983 102.878 25.2264 103.382 25.0487C103.886 24.8711 104.348 24.5915 104.739 24.2275C105.13 23.8635 105.442 23.4227 105.655 22.9328C105.869 22.4429 105.979 21.9143 105.979 21.38C105.979 20.8457 105.869 20.3171 105.655 19.8272C105.442 19.3373 105.13 18.8965 104.739 18.5325C104.348 18.1685 103.886 17.8889 103.382 17.7113C102.878 17.5336 102.343 17.4617 101.81 17.5ZM101.81 23.5H99.2V19.24H101.85C102.418 19.24 102.962 19.4655 103.363 19.8668C103.765 20.2681 103.99 20.8124 103.99 21.38C103.99 21.9476 103.765 22.4919 103.363 22.8932C102.962 23.2945 102.418 23.52 101.85 23.52L101.81 23.5ZM113.35 21.71C112.669 21.668 111.991 21.8266 111.399 22.166C110.807 22.5055 110.328 23.011 110.02 23.62L111.67 24.31C111.837 24.0094 112.087 23.7635 112.39 23.602C112.694 23.4405 113.038 23.3704 113.38 23.4C113.617 23.3723 113.858 23.3921 114.088 23.4583C114.317 23.5245 114.531 23.6358 114.718 23.7857C114.904 23.9356 115.058 24.121 115.172 24.3312C115.286 24.5414 115.356 24.7722 115.38 25.01V25.13C114.779 24.8139 114.109 24.6492 113.43 24.65C111.65 24.65 109.83 25.65 109.83 27.47C109.848 27.8568 109.943 28.2362 110.11 28.5855C110.277 28.9349 110.513 29.2471 110.803 29.5036C111.093 29.7601 111.431 29.9557 111.799 30.0788C112.166 30.2019 112.554 30.2499 112.94 30.22C113.409 30.246 113.877 30.1467 114.295 29.9323C114.713 29.7179 115.067 29.3961 115.32 29H115.38V30H117.18V25.19C117.18 23 115.52 21.73 113.39 21.73L113.35 21.71ZM113.12 28.56C112.51 28.56 111.66 28.25 111.66 27.5C111.66 26.5 112.72 26.16 113.66 26.16C114.254 26.1453 114.841 26.2904 115.36 26.58C115.297 27.1231 115.04 27.625 114.635 27.9927C114.231 28.3605 113.707 28.5691 113.16 28.58L113.12 28.56ZM123.74 22L121.6 27.42H121.54L119.32 22H117.32L120.65 29.58L118.75 33.79H120.75L125.82 22H123.74ZM106.94 30H108.8V17.5H106.94V30Z"/><path fill="url(#paint0_linear)" d="M10.4401 7.54C10.1213 7.93406 9.96403 8.43444 10.0001 8.94V31.06C9.96603 31.5704 10.135 32.0735 10.4701 32.46L10.5401 32.54L22.9001 20.15V19.85L10.5101 7.47L10.4401 7.54Z"/><path fill="url(#paint1_linear)" d="M27 24.28L22.9 20.15V19.85L27 15.72L27.09 15.78L32 18.56C33.4 19.35 33.4 20.65 32 21.45L27.11 24.23L27 24.28Z"/><path fill="url(#paint2_linear)" d="M27.1199 24.23L22.8999 20L10.4399 32.46C10.7225 32.7115 11.0842 32.8562 11.4623 32.869C11.8404 32.8818 12.211 32.7619 12.5099 32.53L27.1199 24.23Z"/><path fill="url(#paint3_linear)" d="M27.1199 15.78L12.5099 7.48C12.213 7.24491 11.8426 7.12206 11.464 7.13303C11.0854 7.14401 10.7228 7.28811 10.4399 7.54L22.8999 20L27.1199 15.78Z"/><path fill="#000" d="M26.9999 24.13L12.5099 32.38C12.2219 32.5974 11.8708 32.715 11.5099 32.715C11.1491 32.715 10.798 32.5974 10.5099 32.38L10.4399 32.45L10.5099 32.53C10.798 32.7474 11.1491 32.865 11.5099 32.865C11.8708 32.865 12.2219 32.7474 12.5099 32.53L27.1199 24.23L26.9999 24.13Z" opacity=".2"/><path fill="#000" d="M10.44 32.32C10.1188 31.9234 9.96138 31.4189 10 30.91V31.06C9.96597 31.5704 10.1349 32.0735 10.47 32.46L10.54 32.39L10.44 32.32Z" opacity=".12"/><path fill="#000" d="M32 21.3L27 24.13L27.09 24.23L32 21.44C32.2898 21.3174 32.5413 21.119 32.7278 20.8656C32.9143 20.6122 33.0291 20.3132 33.06 20C32.9975 20.2846 32.869 20.5505 32.6849 20.7763C32.5007 21.0021 32.2662 21.1815 32 21.3Z" opacity=".12"/><path fill="#fff" d="M12.51 7.61999L32 18.7C32.2662 18.8185 32.5007 18.9979 32.6849 19.2237C32.869 19.4495 32.9975 19.7154 33.06 20C33.0291 19.6868 32.9143 19.3878 32.7278 19.1344C32.5413 18.881 32.2898 18.6825 32 18.56L12.51 7.47999C11.12 6.67999 10 7.33999 10 8.93999V9.08999C10 7.48999 11.12 6.82999 12.51 7.61999Z" opacity=".25"/><defs><linearGradient id="paint0_linear" x1="21.8" x2="5.02" y1="8.71" y2="25.49" gradientUnits="userSpaceOnUse"><stop stop-color="#00A0FF"/><stop offset=".01" stop-color="#00A1FF"/><stop offset=".26" stop-color="#00BEFF"/><stop offset=".51" stop-color="#00D2FF"/><stop offset=".76" stop-color="#00DFFF"/><stop offset="1" stop-color="#00E3FF"/></linearGradient><linearGradient id="paint1_linear" x1="33.83" x2="9.64" y1="20" y2="20" gradientUnits="userSpaceOnUse"><stop stop-color="#FFE000"/><stop offset=".41" stop-color="#FFBD00"/><stop offset=".78" stop-color="orange"/><stop offset="1" stop-color="#FF9C00"/></linearGradient><linearGradient id="paint2_linear" x1="24.83" x2="2.07" y1="22.3" y2="45.05" gradientUnits="userSpaceOnUse"><stop stop-color="#FF3A44"/><stop offset="1" stop-color="#C31162"/></linearGradient><linearGradient id="paint3_linear" x1="7.3" x2="17.46" y1=".18" y2="10.34" gradientUnits="userSpaceOnUse"><stop stop-color="#32A071"/><stop offset=".07" stop-color="#2DA771"/><stop offset=".48" stop-color="#15CF74"/><stop offset=".8" stop-color="#06E775"/><stop offset="1" stop-color="#00F076"/></linearGradient></defs></svg>