<svg width="27" height="27" viewBox="0 0 27 27" fill="none" xmlns="http://www.w3.org/2000/svg">
<circle cx="13.5" cy="13.5" r="13.5" fill="#FFF1DE"/>
<g clip-path="url(#clip0)">
<path d="M18.8301 17.5685H8.3694C7.66956 17.5685 7.09973 17.0052 7.09973 16.3135C7.09973 15.8265 7.38898 15.3786 7.8364 15.1738L12.9486 12.8354C13.3625 12.6459 13.8364 12.6459 14.2508 12.8354L19.3631 15.1738C19.811 15.3791 20.0997 15.826 20.0997 16.3135C20.0997 17.0052 19.5299 17.5685 18.8301 17.5685ZM13.5997 13.7769C13.5315 13.7769 13.4632 13.7915 13.3999 13.8207L8.28706 16.1591C8.22369 16.1878 8.18306 16.2479 8.18306 16.3135C8.18306 16.4077 8.26648 16.4852 8.3694 16.4852H18.8301C18.933 16.4852 19.0164 16.4077 19.0164 16.3135C19.0164 16.2485 18.9758 16.1884 18.9124 16.1591L13.8001 13.8202C13.7362 13.7909 13.668 13.7769 13.5997 13.7769ZM13.5997 13.2352C13.3007 13.2352 13.0581 12.9925 13.0581 12.6935V12.3842L13.0191 12.3317C12.3295 12.0917 11.8664 11.4098 11.8664 10.6352C11.8664 10.3362 12.1091 10.0935 12.4081 10.0935C12.7071 10.0935 12.9497 10.3362 12.9497 10.6352C12.9497 10.9445 13.1247 11.2213 13.3755 11.3085C13.8337 11.4683 14.1414 11.9005 14.1414 12.3842V12.6935C14.1414 12.9925 13.8987 13.2352 13.5997 13.2352ZM14.7914 11.1769C14.4919 11.1769 14.2497 10.9342 14.2497 10.6352C14.2497 10.2587 13.9762 9.98519 13.5997 9.98519C13.2233 9.98519 12.9497 10.2587 12.9497 10.6352C12.9497 10.9342 12.7071 11.1769 12.4081 11.1769C12.1091 11.1769 11.8664 10.9342 11.8664 10.6352C11.8664 9.66344 12.628 8.90186 13.5997 8.90186C14.572 8.90186 15.3331 9.66344 15.3331 10.6352C15.3331 10.9342 15.0909 11.1769 14.7914 11.1769Z" fill="#F26144"/>
</g>
<defs>
<clipPath id="clip0">
<rect width="13.5" height="13.5" fill="white" transform="translate(6.75 6.75)"/>
</clipPath>
</defs>
</svg>
