<svg width="27" height="27" viewBox="0 0 27 27" fill="none" xmlns="http://www.w3.org/2000/svg">
<circle cx="13.5" cy="13.5" r="13.5" fill="#FFF1DE"/>
<g clip-path="url(#clip0)">
<path d="M16.7032 7.24976H15.5782V6.96851C15.578 6.76926 15.5073 6.57651 15.3786 6.4244C15.25 6.27228 15.0716 6.17062 14.8751 6.13741V5.56226C14.8751 5.48766 14.8455 5.41613 14.7927 5.36338C14.74 5.31064 14.6685 5.28101 14.5939 5.28101H12.9064C12.8318 5.28101 12.7602 5.31064 12.7075 5.36338C12.6548 5.41613 12.6251 5.48766 12.6251 5.56226V6.13741C12.4287 6.17062 12.2503 6.27228 12.1216 6.4244C11.9929 6.57651 11.9222 6.76926 11.922 6.96851V7.24976H10.797C10.5359 7.24976 10.2855 7.35347 10.1009 7.53807C9.91633 7.72268 9.81262 7.97306 9.81262 8.23413V16.6716C9.81262 16.9327 9.91633 17.1831 10.1009 17.3677C10.2855 17.5523 10.5359 17.656 10.797 17.656H11.2189V17.9373C11.2189 18.0118 11.2485 18.0834 11.3012 18.1361C11.354 18.1889 11.4255 18.2185 11.5001 18.2185C11.5747 18.2185 11.6463 18.1889 11.699 18.1361C11.7517 18.0834 11.7814 18.0118 11.7814 17.9373V17.656H15.5782V17.9373C15.5782 18.0118 15.6079 18.0834 15.6606 18.1361C15.7134 18.1889 15.7849 18.2185 15.8595 18.2185C15.9341 18.2185 16.0056 18.1889 16.0584 18.1361C16.1111 18.0834 16.1407 18.0118 16.1407 17.9373V17.656H16.7032C16.9643 17.656 17.2147 17.5523 17.3993 17.3677C17.5839 17.1831 17.6876 16.9327 17.6876 16.6716V8.23413C17.6876 7.97306 17.5839 7.72268 17.3993 7.53807C17.2147 7.35347 16.9643 7.24976 16.7032 7.24976ZM13.1876 5.84351H14.3126V6.12476H13.1876V5.84351ZM12.4845 6.96851C12.4845 6.89391 12.5141 6.82238 12.5669 6.76963C12.6196 6.71689 12.6912 6.68726 12.7657 6.68726H14.7345C14.8091 6.68726 14.8806 6.71689 14.9334 6.76963C14.9861 6.82238 15.0157 6.89391 15.0157 6.96851V7.24976H12.4845V6.96851ZM10.797 7.81226H16.7032C16.8151 7.81226 16.9224 7.8567 17.0016 7.93582C17.0807 8.01494 17.1251 8.12224 17.1251 8.23413V13.4119H10.3751V8.23413C10.3751 8.12224 10.4196 8.01494 10.4987 7.93582C10.5778 7.8567 10.6851 7.81226 10.797 7.81226Z" fill="#F26144"/>
<path d="M11.5 10.625H16C16.0746 10.625 16.1461 10.5954 16.1989 10.5426C16.2516 10.4899 16.2812 10.4183 16.2812 10.3438C16.2812 10.2692 16.2516 10.1976 16.1989 10.1449C16.1461 10.0921 16.0746 10.0625 16 10.0625H11.5C11.4254 10.0625 11.3539 10.0921 11.3011 10.1449C11.2484 10.1976 11.2188 10.2692 11.2188 10.3438C11.2188 10.4183 11.2484 10.4899 11.3011 10.5426C11.3539 10.5954 11.4254 10.625 11.5 10.625Z" fill="#F26144"/>
<path d="M7.22461 23.1364C7.22461 22.5081 7.39307 22.0239 7.72998 21.6837C8.02295 21.3875 8.39567 21.2394 8.84814 21.2394C9.45361 21.2394 9.89632 21.4379 10.1763 21.8351C10.3309 22.0581 10.4139 22.2819 10.4253 22.5065H9.67334C9.62451 22.3339 9.56185 22.2037 9.48535 22.1158C9.34863 21.9596 9.146 21.8815 8.87744 21.8815C8.604 21.8815 8.38835 21.9921 8.23047 22.2135C8.07259 22.4332 7.99365 22.7449 7.99365 23.1486C7.99365 23.5522 8.07666 23.8549 8.24268 24.0568C8.41032 24.257 8.62272 24.3571 8.87988 24.3571C9.14355 24.3571 9.34456 24.2708 9.48291 24.0983C9.55941 24.0055 9.62288 23.8663 9.67334 23.6808H10.418C10.3529 24.073 10.186 24.392 9.91748 24.6378C9.65055 24.8836 9.30794 25.0065 8.88965 25.0065C8.37207 25.0065 7.96517 24.8405 7.66895 24.5084C7.37272 24.1748 7.22461 23.7174 7.22461 23.1364ZM12.3833 22.1818C12.3963 22.1818 12.4069 22.1826 12.415 22.1842C12.4248 22.1842 12.4451 22.185 12.4761 22.1866V22.8995C12.4321 22.8947 12.3931 22.8914 12.3589 22.8898C12.3247 22.8881 12.297 22.8873 12.2759 22.8873C11.9959 22.8873 11.8079 22.9785 11.7119 23.1608C11.6582 23.2633 11.6313 23.4212 11.6313 23.6344V24.9064H10.9307V22.2452H11.5947V22.7091C11.7021 22.5317 11.7957 22.4104 11.8755 22.3453C12.0057 22.2363 12.175 22.1818 12.3833 22.1818ZM13.936 22.7482C13.7749 22.7482 13.6496 22.7986 13.5601 22.8995C13.4722 23.0004 13.4168 23.1372 13.394 23.3097H14.4756C14.4642 23.1258 14.408 22.9866 14.3071 22.8922C14.2078 22.7962 14.0841 22.7482 13.936 22.7482ZM13.936 22.1744C14.1574 22.1744 14.3568 22.2159 14.5342 22.299C14.7116 22.382 14.8581 22.513 14.9736 22.692C15.0778 22.8499 15.1453 23.033 15.1763 23.2413C15.1942 23.3634 15.2015 23.5392 15.1982 23.7687H13.377C13.3867 24.0356 13.4705 24.2228 13.6284 24.3302C13.7244 24.3969 13.84 24.4303 13.9751 24.4303C14.1183 24.4303 14.2347 24.3896 14.3242 24.3082C14.373 24.2643 14.4162 24.2032 14.4536 24.1251H15.1641C15.1462 24.283 15.064 24.4433 14.9175 24.6061C14.6896 24.8649 14.3706 24.9943 13.9604 24.9943C13.6219 24.9943 13.3232 24.8852 13.0645 24.6671C12.8057 24.449 12.6763 24.0942 12.6763 23.6027C12.6763 23.142 12.7926 22.7889 13.0254 22.5431C13.2598 22.2973 13.5633 22.1744 13.936 22.1744ZM17.1367 23.6124C17.0928 23.6401 17.048 23.6629 17.0024 23.6808C16.9585 23.6971 16.8975 23.7125 16.8193 23.7272L16.6631 23.7565C16.5166 23.7825 16.4116 23.8142 16.3481 23.8517C16.2407 23.9152 16.187 24.0136 16.187 24.1471C16.187 24.2659 16.2196 24.3522 16.2847 24.4059C16.3514 24.458 16.432 24.484 16.5264 24.484C16.6761 24.484 16.8136 24.4401 16.939 24.3522C17.0659 24.2643 17.1318 24.104 17.1367 23.8712V23.6124ZM16.7144 23.2877C16.8429 23.2714 16.9349 23.2511 16.9902 23.2267C17.0895 23.1844 17.1392 23.1184 17.1392 23.0289C17.1392 22.9199 17.1009 22.845 17.0244 22.8043C16.9495 22.762 16.8389 22.7408 16.6924 22.7408C16.528 22.7408 16.4116 22.7815 16.3433 22.8629C16.2944 22.9231 16.2619 23.0045 16.2456 23.1071H15.5742C15.5889 22.8743 15.654 22.6831 15.7695 22.5333C15.9535 22.299 16.2692 22.1818 16.7168 22.1818C17.0081 22.1818 17.2669 22.2395 17.4932 22.3551C17.7194 22.4707 17.8325 22.6888 17.8325 23.0094V24.2301C17.8325 24.3147 17.8341 24.4173 17.8374 24.5377C17.8423 24.6289 17.8561 24.6907 17.8789 24.7233C17.9017 24.7558 17.9359 24.7827 17.9814 24.8038V24.9064H17.2246C17.2035 24.8527 17.1888 24.8022 17.1807 24.755C17.1725 24.7078 17.166 24.6541 17.1611 24.5939C17.0651 24.698 16.9544 24.7867 16.8291 24.86C16.6794 24.9462 16.5101 24.9894 16.3213 24.9894C16.0804 24.9894 15.881 24.921 15.7231 24.7843C15.5669 24.646 15.4888 24.4506 15.4888 24.1984C15.4888 23.8712 15.6149 23.6344 15.8672 23.4879C16.0055 23.4082 16.209 23.3512 16.4775 23.317L16.7144 23.2877ZM18.1792 22.7653V22.2697H18.5503V21.5275H19.2388V22.2697H19.6709V22.7653H19.2388V24.1715C19.2388 24.2806 19.2526 24.3489 19.2803 24.3766C19.3079 24.4026 19.3926 24.4156 19.5342 24.4156C19.5553 24.4156 19.5773 24.4156 19.6001 24.4156C19.6245 24.414 19.6481 24.4124 19.6709 24.4108V24.9308L19.3413 24.943C19.0125 24.9544 18.7879 24.8974 18.6675 24.7721C18.5894 24.6923 18.5503 24.5695 18.5503 24.4034V22.7653H18.1792ZM8.37451 28.7482C8.21338 28.7482 8.08805 28.7986 7.99854 28.8995C7.91064 29.0004 7.85531 29.1372 7.83252 29.3097H8.91406C8.90267 29.1258 8.84652 28.9866 8.74561 28.8922C8.64632 28.7962 8.52262 28.7482 8.37451 28.7482ZM8.37451 28.1744C8.59587 28.1744 8.79525 28.2159 8.97266 28.299C9.15007 28.382 9.29655 28.513 9.41211 28.692C9.51628 28.8499 9.58382 29.033 9.61475 29.2413C9.63265 29.3634 9.63997 29.5392 9.63672 29.7687H7.81543C7.8252 30.0356 7.90902 30.2228 8.06689 30.3302C8.16292 30.3969 8.27848 30.4303 8.41357 30.4303C8.5568 30.4303 8.67318 30.3896 8.7627 30.3082C8.81152 30.2643 8.85465 30.2032 8.89209 30.1251H9.60254C9.58464 30.283 9.50244 30.4433 9.35596 30.6061C9.12809 30.8649 8.80908 30.9943 8.39893 30.9943C8.06038 30.9943 7.76172 30.8852 7.50293 30.6671C7.24414 30.449 7.11475 30.0942 7.11475 29.6027C7.11475 29.142 7.23112 28.7889 7.46387 28.5431C7.69824 28.2973 8.00179 28.1744 8.37451 28.1744ZM11.0894 28.1818C11.2505 28.1818 11.3937 28.2176 11.519 28.2892C11.6444 28.3592 11.7461 28.4568 11.8242 28.5822V27.3126H12.5298V30.9064H11.8535V30.5377C11.7542 30.6956 11.6411 30.8103 11.5142 30.882C11.3872 30.9536 11.2293 30.9894 11.0405 30.9894C10.7297 30.9894 10.4676 30.8641 10.2544 30.6134C10.0428 30.3611 9.93701 30.038 9.93701 29.6442C9.93701 29.1901 10.0412 28.8328 10.2495 28.5724C10.4595 28.312 10.7394 28.1818 11.0894 28.1818ZM11.2407 30.4034C11.4377 30.4034 11.5874 30.3302 11.6899 30.1837C11.7925 30.0372 11.8438 29.8476 11.8438 29.6149C11.8438 29.2893 11.7616 29.0566 11.5972 28.9166C11.4963 28.832 11.3791 28.7897 11.2456 28.7897C11.0422 28.7897 10.8924 28.867 10.7964 29.0216C10.702 29.1746 10.6548 29.365 10.6548 29.5929C10.6548 29.8387 10.7028 30.0356 10.7988 30.1837C10.8965 30.3302 11.0438 30.4034 11.2407 30.4034ZM15.9941 28.1866C16.3441 28.1866 16.6175 28.3128 16.8145 28.5651C17.013 28.8173 17.1123 29.1429 17.1123 29.5416C17.1123 29.955 17.0146 30.2976 16.8193 30.5695C16.624 30.8413 16.3514 30.9772 16.0015 30.9772C15.7817 30.9772 15.6051 30.9332 15.4717 30.8453C15.3919 30.7933 15.3057 30.7021 15.2129 30.5719V30.9064H14.5317V27.3126H15.2251V28.5919C15.313 28.4682 15.4098 28.3738 15.5156 28.3087C15.641 28.2273 15.8005 28.1866 15.9941 28.1866ZM15.8159 30.4034C15.995 30.4034 16.1341 30.331 16.2334 30.1862C16.3327 30.0413 16.3823 29.8509 16.3823 29.6149C16.3823 29.4261 16.3579 29.2698 16.3091 29.1461C16.2163 28.9117 16.0454 28.7946 15.7964 28.7946C15.5441 28.7946 15.3708 28.9093 15.2764 29.1388C15.2275 29.2609 15.2031 29.4187 15.2031 29.6124C15.2031 29.8403 15.2536 30.0291 15.3545 30.1788C15.4554 30.3286 15.6092 30.4034 15.8159 30.4034ZM17.7202 31.4166L17.8081 31.4215C17.8765 31.4248 17.9416 31.4223 18.0034 31.4142C18.0653 31.406 18.1174 31.3873 18.1597 31.358C18.2004 31.3304 18.2378 31.2726 18.272 31.1847C18.3078 31.0968 18.3224 31.0431 18.3159 31.0236L17.3394 28.2452H18.1133L18.6943 30.2081L19.2437 28.2452H19.9834L19.0703 30.8624C18.8945 31.367 18.7554 31.6795 18.6528 31.7999C18.5503 31.922 18.3452 31.983 18.0376 31.983C17.9757 31.983 17.9261 31.9822 17.8887 31.9806C17.8512 31.9806 17.7951 31.9781 17.7202 31.9733V31.4166ZM8.13281 33.9327V34.8995H8.98486C9.15413 34.8995 9.28109 34.88 9.36572 34.8409C9.51546 34.7726 9.59033 34.6375 9.59033 34.4357C9.59033 34.2176 9.5179 34.0711 9.37305 33.9962C9.29167 33.9539 9.1696 33.9327 9.00684 33.9327H8.13281ZM9.16309 33.3077C9.41536 33.3126 9.60905 33.3435 9.74414 33.4005C9.88086 33.4575 9.99642 33.5413 10.0908 33.652C10.1689 33.7431 10.2308 33.844 10.2764 33.9547C10.3219 34.0654 10.3447 34.1915 10.3447 34.3331C10.3447 34.504 10.3016 34.6725 10.2153 34.8385C10.1291 35.0029 9.98665 35.1193 9.78809 35.1876C9.9541 35.2544 10.0713 35.3496 10.1396 35.4733C10.2096 35.5953 10.2446 35.7825 10.2446 36.0348V36.2765C10.2446 36.4409 10.2511 36.5524 10.2642 36.611C10.2837 36.7037 10.3293 36.7721 10.4009 36.816V36.9064H9.57324C9.55046 36.8266 9.53418 36.7623 9.52441 36.7135C9.50488 36.6126 9.4943 36.5092 9.49268 36.4034L9.48779 36.069C9.48454 35.8395 9.44222 35.6865 9.36084 35.61C9.28109 35.5335 9.13053 35.4952 8.90918 35.4952H8.13281V36.9064H7.39795V33.3077H9.16309ZM11.6533 33.9279H10.9478V33.2858H11.6533V33.9279ZM10.9478 34.2452H11.6533V36.9064H10.9478V34.2452ZM13.8042 34.1818C14.0793 34.1818 14.3039 34.2542 14.478 34.399C14.6538 34.5423 14.7417 34.7807 14.7417 35.1144V36.9064H14.0288V35.2877C14.0288 35.1477 14.0101 35.0403 13.9727 34.9655C13.9043 34.8287 13.7741 34.7604 13.582 34.7604C13.346 34.7604 13.1841 34.8605 13.0962 35.0607C13.0506 35.1665 13.0278 35.3016 13.0278 35.4659V36.9064H12.3345V34.2501H13.0059V34.6383C13.0954 34.5016 13.18 34.4031 13.2598 34.3429C13.403 34.2355 13.5845 34.1818 13.8042 34.1818ZM16.8315 34.1818C16.8446 34.1818 16.8551 34.1826 16.8633 34.1842C16.873 34.1842 16.8934 34.185 16.9243 34.1866V34.8995C16.8804 34.8947 16.8413 34.8914 16.8071 34.8898C16.7729 34.8881 16.7453 34.8873 16.7241 34.8873C16.4442 34.8873 16.2562 34.9785 16.1602 35.1608C16.1064 35.2633 16.0796 35.4212 16.0796 35.6344V36.9064H15.3789V34.2452H16.043V34.7091C16.1504 34.5317 16.244 34.4104 16.3237 34.3453C16.4539 34.2363 16.6232 34.1818 16.8315 34.1818ZM18.0498 33.9279H17.3442V33.2858H18.0498V33.9279ZM17.3442 34.2452H18.0498V36.9064H17.3442V34.2452ZM8.79932 40.1818C9.07438 40.1818 9.29899 40.2542 9.47314 40.399C9.64893 40.5423 9.73682 40.7807 9.73682 41.1144V42.9064H9.02393V41.2877C9.02393 41.1477 9.00521 41.0403 8.96777 40.9655C8.89941 40.8287 8.76921 40.7604 8.57715 40.7604C8.34115 40.7604 8.1792 40.8605 8.09131 41.0607C8.04574 41.1665 8.02295 41.3016 8.02295 41.4659V42.9064H7.32959V40.2501H8.00098V40.6383C8.09049 40.5016 8.17513 40.4031 8.25488 40.3429C8.39811 40.2355 8.57959 40.1818 8.79932 40.1818Z" fill="#F26144"/>
</g>
<defs>
<clipPath id="clip0">
<rect width="13.5" height="16.875" fill="white" transform="translate(7 5)"/>
</clipPath>
</defs>
</svg>
