<svg width="13" height="15" viewBox="0 0 13 15" fill="none" xmlns="http://www.w3.org/2000/svg">
<path d="M12.9994 6.83262L13 13.2385C13 13.5604 12.9665 13.6772 12.9035 13.7949C12.8406 13.9125 12.7482 14.0049 12.6305 14.0679C12.5128 14.1308 12.3961 14.1643 12.0742 14.1643H8.87029C8.54835 14.1643 8.43161 14.1308 8.31392 14.0679C8.19622 14.0049 8.10385 13.9125 8.04091 13.7949C7.97796 13.6772 7.94444 13.5604 7.94444 13.2385V10.0346C7.94444 9.71268 7.91092 9.59594 7.84798 9.47824C7.78504 9.36055 7.69267 9.26818 7.57497 9.20524C7.45728 9.14229 7.34053 9.10877 7.0186 9.10877H5.9814C5.65947 9.10877 5.54272 9.14229 5.42503 9.20524C5.30733 9.26818 5.21496 9.36055 5.15202 9.47824C5.08908 9.59594 5.05556 9.71268 5.05556 10.0346V13.2385C5.05556 13.5604 5.02204 13.6772 4.95909 13.7949C4.89615 13.9125 4.80378 14.0049 4.68608 14.0679C4.56839 14.1308 4.45165 14.1643 4.12971 14.1643H0.925847C0.60391 14.1643 0.487168 14.1308 0.369472 14.0679C0.251777 14.0049 0.159409 13.9125 0.0964646 13.7949C0.0335204 13.6772 0 13.5604 0 13.2385V6.97572C0 6.37159 0.026187 6.15951 0.0874127 5.92605C0.148638 5.69259 0.244903 5.48706 0.385058 5.29056L0.45708 5.19444C0.582765 5.03569 0.748724 4.87372 1.13548 4.55143L5.89151 0.588071C6.11361 0.402981 6.21056 0.355135 6.32622 0.323657C6.44188 0.292179 6.55812 0.292179 6.67378 0.323657C6.78944 0.355135 6.88639 0.402981 7.10849 0.588071L11.8645 4.55143C12.3286 4.93818 12.4748 5.09407 12.6149 5.29056C12.7551 5.48706 12.8514 5.69259 12.9126 5.92605C12.9687 6.14006 12.9954 6.3361 12.9994 6.83262Z" fill="#F26144"/>
</svg>
