<svg width="35" height="35" viewBox="0 0 35 35" fill="none" xmlns="http://www.w3.org/2000/svg">
<circle cx="17.5" cy="17.5" r="17.5" fill="#FFF1DE"/>
<path d="M26.8163 10.5135C26.4217 10.4304 26.0479 10.742 25.9856 11.1366L24.324 23.3074H10.824L9.16247 11.1366C9.10016 10.742 8.74708 10.4304 8.3317 10.5135C7.93708 10.5758 7.64631 10.9289 7.70862 11.3443L9.45324 24.1589C9.49478 24.512 9.80632 24.8028 10.1802 24.8028H24.9679C25.3417 24.8028 25.6533 24.5328 25.6948 24.1589L27.4394 11.3443C27.5017 10.9289 27.2317 10.555 26.8163 10.5135Z" fill="#F26144"/>
<path d="M23.4099 22.2479L24.5107 14.0649C24.4484 14.0856 24.3861 14.0856 24.303 14.0856C23.1607 14.0856 22.1222 13.4625 21.5822 12.4864L20.9384 11.2818L20.2945 12.4864C19.7545 13.4625 18.7161 14.0856 17.5945 14.0856C16.4314 14.0856 15.393 13.4625 14.853 12.4656L14.2091 11.2402L13.5653 12.4656C13.0253 13.5249 11.8207 14.1064 10.6576 14.0441L11.7791 22.2479H23.4099ZM21.1876 18.5095C21.6238 18.5095 21.9768 18.8626 21.9768 19.2987C21.9768 19.7349 21.6238 20.0879 21.1876 20.0879C20.7515 20.0879 20.3984 19.7349 20.3984 19.2987C20.3984 18.8626 20.7515 18.5095 21.1876 18.5095ZM19.4015 15.8925C19.8376 15.8925 20.1907 16.2456 20.1907 16.6818C20.1907 17.1179 19.8376 17.471 19.4015 17.471C18.9653 17.471 18.6122 17.1179 18.6122 16.6818C18.5915 16.2664 18.9445 15.8925 19.4015 15.8925ZM17.5945 18.5095C18.0307 18.5095 18.3838 18.8626 18.3838 19.2987C18.3838 19.7349 18.0307 20.0879 17.5945 20.0879C17.1584 20.0879 16.8053 19.7349 16.8053 19.2987C16.8053 18.8626 17.1584 18.5095 17.5945 18.5095ZM15.7876 15.8925C16.2238 15.8925 16.5768 16.2456 16.5768 16.6818C16.5768 17.1179 16.2238 17.471 15.7876 17.471C15.3514 17.471 14.9984 17.1179 14.9984 16.6818C14.9984 16.2664 15.3514 15.8925 15.7876 15.8925ZM14.0014 18.5095C14.4376 18.5095 14.7907 18.8626 14.7907 19.2987C14.7907 19.7349 14.4376 20.0879 14.0014 20.0879C13.5653 20.0879 13.2122 19.7349 13.2122 19.2987C13.2122 18.8626 13.5653 18.5095 14.0014 18.5095Z" fill="#F26144"/>
</svg>
