<svg xmlns="http://www.w3.org/2000/svg" width="35" height="35" fill="none" viewBox="0 0 35 35"><circle cx="17.5" cy="17.5" r="17.5" fill="#FFF1DE"/><g clip-path="url(#clip0)"><path fill="#F26144" d="M24.4094 22.7736H10.8492C9.94204 22.7736 9.20337 22.0434 9.20337 21.1467C9.20337 20.5155 9.57832 19.9348 10.1583 19.6694L16.7853 16.6382C17.3217 16.3924 17.9361 16.3924 18.4733 16.6382L25.1003 19.6694C25.681 19.9355 26.0552 20.5148 26.0552 21.1467C26.0552 22.0434 25.3165 22.7736 24.4094 22.7736ZM17.6293 17.8585C17.5408 17.8585 17.4523 17.8775 17.3702 17.9154L10.7425 20.9466C10.6604 20.9838 10.6077 21.0618 10.6077 21.1467C10.6077 21.2689 10.7158 21.3693 10.8492 21.3693H24.4094C24.5428 21.3693 24.6509 21.2689 24.6509 21.1467C24.6509 21.0625 24.5982 20.9845 24.5161 20.9466L17.8891 17.9147C17.8062 17.8768 17.7178 17.8585 17.6293 17.8585ZM17.6293 17.1563C17.2417 17.1563 16.9271 16.8418 16.9271 16.4542V16.0533L16.8766 15.9851C15.9827 15.6741 15.3824 14.7901 15.3824 13.786C15.3824 13.3984 15.6969 13.0838 16.0845 13.0838C16.4721 13.0838 16.7867 13.3984 16.7867 13.786C16.7867 14.1869 17.0135 14.5457 17.3386 14.6588C17.9326 14.8659 18.3315 15.4262 18.3315 16.0533V16.4542C18.3315 16.8418 18.0169 17.1563 17.6293 17.1563ZM19.174 14.4881C18.7858 14.4881 18.4719 14.1736 18.4719 13.786C18.4719 13.298 18.1173 12.9434 17.6293 12.9434C17.1413 12.9434 16.7867 13.298 16.7867 13.786C16.7867 14.1736 16.4721 14.4881 16.0845 14.4881C15.6969 14.4881 15.3824 14.1736 15.3824 13.786C15.3824 12.5263 16.3696 11.5391 17.6293 11.5391C18.8897 11.5391 19.8762 12.5263 19.8762 13.786C19.8762 14.1736 19.5623 14.4881 19.174 14.4881Z"/></g><defs><clipPath id="clip0"><rect width="17.5" height="17.5" fill="#fff" transform="translate(8.75 8.75)"/></clipPath></defs></svg>