<svg width="27" height="27" viewBox="0 0 27 27" fill="none" xmlns="http://www.w3.org/2000/svg">
<circle cx="13.5" cy="13.5" r="13.5" fill="#FFF1DE"/>
<path fill-rule="evenodd" clip-rule="evenodd" d="M8.4375 9.98438C8.4375 9.75138 8.62638 9.5625 8.85938 9.5625C10.3575 9.5625 11.817 9.03179 13.2469 7.95938C13.3969 7.84688 13.6031 7.84688 13.7531 7.95938C15.183 9.03179 16.6425 9.5625 18.1406 9.5625C18.3736 9.5625 18.5625 9.75138 18.5625 9.98438V12.9375C18.5625 15.7507 16.8989 17.8176 13.6546 19.0956C13.5553 19.1348 13.4447 19.1348 13.3454 19.0956C10.1011 17.8176 8.4375 15.7507 8.4375 12.9375V9.98438ZM14.6222 12.9375C14.6222 13.4085 14.3327 13.8119 13.9219 13.9794L13.9219 15.3281C13.9219 15.5611 13.733 15.75 13.5 15.75C13.267 15.75 13.0781 15.5611 13.0781 15.3281L13.0781 13.9814C12.6647 13.8152 12.3728 13.4104 12.3728 12.9375C12.3728 12.3163 12.8763 11.8128 13.4975 11.8128C14.1187 11.8128 14.6222 12.3163 14.6222 12.9375Z" fill="#F26144"/>
</svg>
