<svg width="48" height="48" viewBox="0 0 48 48" fill="none" xmlns="http://www.w3.org/2000/svg">
<rect width="48" height="48" fill="white"/>
<rect width="48" height="48" fill="white"/>
<path d="M30 28V29H26C26 29.276 25.9479 29.5365 25.8438 29.7812C25.7396 30.0208 25.5964 30.2318 25.4141 30.4141C25.2318 30.5964 25.0182 30.7396 24.7734 30.8438C24.5339 30.9479 24.276 31 24 31C23.724 31 23.4635 30.9479 23.2188 30.8438C22.9792 30.7396 22.7682 30.5964 22.5859 30.4141C22.4036 30.2318 22.2604 30.0208 22.1562 29.7812C22.0521 29.5365 22 29.276 22 29H18V28H19V22C19 21.5417 19.0599 21.099 19.1797 20.6719C19.2995 20.2448 19.4661 19.8464 19.6797 19.4766C19.8984 19.1068 20.1589 18.7708 20.4609 18.4688C20.7682 18.1615 21.1068 17.901 21.4766 17.6875C21.8464 17.4688 22.2448 17.2995 22.6719 17.1797C23.099 17.0599 23.5417 17 24 17C24.4583 17 24.901 17.0599 25.3281 17.1797C25.7552 17.2995 26.1536 17.4688 26.5234 17.6875C26.8932 17.901 27.2292 18.1615 27.5312 18.4688C27.8385 18.7708 28.099 19.1068 28.3125 19.4766C28.5312 19.8464 28.7005 20.2448 28.8203 20.6719C28.9401 21.099 29 21.5417 29 22V28H30ZM28 28V22C28 21.4479 27.8932 20.9297 27.6797 20.4453C27.4714 19.9609 27.1849 19.5391 26.8203 19.1797C26.4609 18.8151 26.0391 18.5286 25.5547 18.3203C25.0703 18.1068 24.5521 18 24 18C23.4479 18 22.9297 18.1068 22.4453 18.3203C21.9609 18.5286 21.5365 18.8151 21.1719 19.1797C20.8125 19.5391 20.526 19.9609 20.3125 20.4453C20.1042 20.9297 20 21.4479 20 22V28H28ZM24 30C24.1406 30 24.2708 29.974 24.3906 29.9219C24.5104 29.8698 24.6146 29.7995 24.7031 29.7109C24.7969 29.6172 24.8698 29.5104 24.9219 29.3906C24.974 29.2708 25 29.1406 25 29H23C23 29.1406 23.026 29.2708 23.0781 29.3906C23.1302 29.5104 23.2005 29.6172 23.2891 29.7109C23.3828 29.7995 23.4896 29.8698 23.6094 29.9219C23.7292 29.974 23.8594 30 24 30Z" fill="#F26144"/>
<rect x="24" y="8" width="16" height="16" rx="8" fill="#FF974E"/>
<path d="M34.8466 17.84C34.8466 16.832 34.2346 16.052 33.3466 15.872C33.9586 15.68 34.5106 15.008 34.5106 14.18C34.5106 13.052 33.5146 12.092 32.0026 12.092C30.5026 12.092 29.5066 13.052 29.5066 14.18C29.5066 15.044 30.0586 15.704 30.6826 15.884C29.7946 16.064 29.1586 16.832 29.1586 17.828C29.1586 19.16 30.3346 20.108 32.0026 20.108C33.6706 20.108 34.8466 19.16 34.8466 17.84ZM32.0026 12.884C32.9266 12.884 33.5866 13.448 33.5866 14.228C33.5866 15.02 32.9266 15.572 32.0026 15.572C31.0786 15.572 30.4186 15.02 30.4186 14.228C30.4186 13.448 31.0786 12.884 32.0026 12.884ZM32.0026 16.256C33.1186 16.256 33.9106 16.88 33.9106 17.756C33.9106 18.668 33.1186 19.304 32.0026 19.304C30.8866 19.304 30.0946 18.668 30.0946 17.756C30.0946 16.88 30.8866 16.256 32.0026 16.256Z" fill="white"/>
</svg>
