<svg width="16" height="16" viewBox="0 0 16 16" fill="none" xmlns="http://www.w3.org/2000/svg">
<path d="M7.99613 16C12.3809 16 16 12.3809 16 8.00387C16 3.61914 12.3731 0 7.9884 0C3.61141 0 0 3.61914 0 8.00387C0 12.3809 3.61914 16 7.99613 16ZM7.9884 12.7057C7.76414 12.7057 7.60174 12.5433 7.60174 12.319V11.7467C6.40309 11.6462 5.51377 11.0198 5.27405 10.1305C5.24311 10.03 5.21991 9.92943 5.21991 9.83664C5.21991 9.49638 5.45191 9.26438 5.80764 9.26438C6.1015 9.26438 6.29483 9.41131 6.41083 9.72064C6.54229 10.2078 6.93668 10.5636 7.60174 10.6641V8.47559L7.46254 8.44466C6.07057 8.11213 5.33591 7.47801 5.33591 6.37989C5.33591 5.20445 6.27936 4.40019 7.60174 4.27646V3.71194C7.60174 3.48768 7.76414 3.32528 7.9884 3.32528C8.20493 3.32528 8.37506 3.48768 8.37506 3.71194V4.27646C9.49638 4.39246 10.3393 5.01112 10.5713 5.87723C10.5945 5.97003 10.61 6.07057 10.61 6.1711C10.61 6.48816 10.378 6.72015 10.0377 6.72015C9.7361 6.72015 9.55051 6.55776 9.42678 6.27163C9.27211 5.78444 8.90092 5.46738 8.37506 5.37458V7.44708L8.56066 7.48574C10.0068 7.81827 10.7569 8.42919 10.7569 9.57371C10.7569 10.8574 9.74384 11.6307 8.37506 11.7545V12.319C8.37506 12.5433 8.20493 12.7057 7.9884 12.7057ZM7.60174 7.25375V5.36684C6.97535 5.46738 6.58096 5.85404 6.58096 6.31029C6.58096 6.74335 6.87482 7.06042 7.53987 7.23828L7.60174 7.25375ZM8.37506 8.66119V10.6641C9.13291 10.5713 9.51184 10.1924 9.51184 9.6665C9.51184 9.17931 9.23345 8.91638 8.45239 8.68439L8.37506 8.66119Z" fill="#F26144"/>
</svg>
