<svg xmlns="http://www.w3.org/2000/svg" width="22" height="22" fill="none" viewBox="0 0 22 22"><path fill="#F26144" fill-rule="evenodd" d="M0 4C0 1.79086 1.79086 0 4 0H18C20.2091 0 22 1.79086 22 4V18C22 20.2091 20.2091 22 18 22H4C1.79086 22 0 20.2091 0 18V4Z" clip-rule="evenodd"/><path fill="#fff" d="M4.86035 17.2017H16.8062C18.271 17.2017 19.0181 16.4619 19.0181 15.0117V6.55957C19.0181 5.1167 18.271 4.37695 16.8062 4.37695H4.86035C3.39551 4.37695 2.64844 5.10938 2.64844 6.55957V15.0117C2.64844 16.4619 3.39551 17.2017 4.86035 17.2017ZM3.85693 6.64014C3.85693 5.93701 4.23047 5.58545 4.9043 5.58545H16.7622C17.4287 5.58545 17.8096 5.93701 17.8096 6.64014V14.1694L14.1841 10.7637C13.8765 10.4927 13.5176 10.3462 13.144 10.3462C12.7632 10.3462 12.4189 10.4707 12.104 10.7563L8.97656 13.5542L7.69482 12.397C7.40186 12.1333 7.07959 12.0015 6.75732 12.0015C6.44238 12.0015 6.14941 12.126 5.86377 12.3896L3.85693 14.1987V6.64014ZM7.88525 10.8662C8.78613 10.8662 9.52588 10.1338 9.52588 9.22559C9.52588 8.32471 8.78613 7.57764 7.88525 7.57764C6.97705 7.57764 6.24463 8.32471 6.24463 9.22559C6.24463 10.1338 6.97705 10.8662 7.88525 10.8662Z"/></svg>