<svg xmlns="http://www.w3.org/2000/svg" width="16" height="16" fill="none" viewBox="0 0 16 16"><circle cx="8" cy="8" r="8" fill="#F26144"/><path fill="#fff" d="M3 7.62248C3 7.92969 3.24933 8.17903 3.55654 8.17903C3.86821 8.17903 4.11309 7.92969 4.11309 7.62248V7.33308C4.11309 6.60734 4.61175 6.13984 5.36866 6.13984H8.71238V7.07039C8.71238 7.33753 8.88157 7.50672 9.15316 7.50672C9.27338 7.50672 9.38468 7.4622 9.47373 7.39096L11.228 5.93058C11.4461 5.75694 11.4417 5.46309 11.228 5.28499L9.47373 3.82016C9.38468 3.74447 9.27338 3.69995 9.15316 3.69995C8.88157 3.69995 8.71238 3.86914 8.71238 4.13628V5.04456H5.4577C3.94835 5.04456 3 5.88606 3 7.22622V7.62248ZM7.28762 8.84243C7.28762 8.57529 7.11843 8.40164 6.85129 8.40164C6.73108 8.40164 6.61532 8.45062 6.52627 8.52186L4.77649 9.98223C4.55833 10.1559 4.55833 10.4453 4.77649 10.6278L6.52627 12.0926C6.61532 12.1683 6.73108 12.2129 6.85129 12.2129C7.11843 12.2129 7.28762 12.0437 7.28762 11.7765V10.8638H10.5468C12.0561 10.8638 13 10.0178 13 8.68214V8.28588C13 7.97422 12.7551 7.72488 12.4435 7.72488C12.1362 7.72488 11.8869 7.97422 11.8869 8.28588V8.57529C11.8869 9.29657 11.3927 9.76852 10.6313 9.76852H7.28762V8.84243Z"/></svg>