<svg width="14" height="14" viewBox="0 0 14 14" fill="none" xmlns="http://www.w3.org/2000/svg">
<path d="M7.00004 0.333252C10.6819 0.333252 13.6667 3.31802 13.6667 6.99992C13.6667 10.6818 10.6819 13.6666 7.00004 13.6666C5.90641 13.6666 4.85015 13.4025 3.90389 12.9054L1.04363 13.6501C0.740773 13.729 0.43131 13.5475 0.352424 13.2446C0.328031 13.151 0.328028 13.0526 0.352406 12.959L1.09664 10.1001C0.598174 9.15282 0.333374 8.09511 0.333374 6.99992C0.333374 3.31802 3.31814 0.333252 7.00004 0.333252ZM7.00004 9.33325C6.63185 9.33325 6.33337 9.63173 6.33337 9.99992C6.33337 10.3681 6.63185 10.6666 7.00004 10.6666C7.36823 10.6666 7.66671 10.3681 7.66671 9.99992C7.66671 9.63173 7.36823 9.33325 7.00004 9.33325ZM7.00004 3.49992C5.98752 3.49992 5.16671 4.32073 5.16671 5.33325C5.16671 5.60939 5.39056 5.83325 5.66671 5.83325C5.91984 5.83325 6.12903 5.64515 6.16214 5.4011L6.17101 5.24805C6.21369 4.82784 6.56857 4.49992 7.00004 4.49992C7.46028 4.49992 7.83337 4.87301 7.83337 5.33325C7.83337 5.69246 7.74338 5.87009 7.40344 6.22139L7.2008 6.42753C6.6984 6.95056 6.50004 7.32608 6.50004 7.99992C6.50004 8.27606 6.7239 8.49992 7.00004 8.49992C7.27618 8.49992 7.50004 8.27606 7.50004 7.99992C7.50004 7.64071 7.59004 7.46308 7.92998 7.11179L8.13261 6.90564C8.63501 6.38261 8.83337 6.00709 8.83337 5.33325C8.83337 4.32073 8.01256 3.49992 7.00004 3.49992Z" fill="#F26144"/>
</svg>
