<svg xmlns="http://www.w3.org/2000/svg" width="27" height="27" fill="none" viewBox="0 0 27 27"><circle cx="13.5" cy="13.5" r="13.5" fill="#FFF1DE"/><g clip-path="url(#clip0)"><path fill="#F26144" d="M9.56818 17.8349C9.05886 17.8349 8.64773 17.4221 8.64773 16.9108C8.64773 16.3994 9.05886 15.9867 9.56818 15.9867C10.0775 15.9867 10.4886 16.3994 10.4886 16.9108C10.4886 17.4221 10.0775 17.8349 9.56818 17.8349ZM8.64773 12.2902H10.1818V13.8304H7.445L8.64773 12.2902ZM16.9318 17.8349C16.4225 17.8349 16.0114 17.4221 16.0114 16.9108C16.0114 16.3994 16.4225 15.9867 16.9318 15.9867C17.4411 15.9867 17.8523 16.3994 17.8523 16.9108C17.8523 17.4221 17.4411 17.8349 16.9318 17.8349ZM8.34091 11.3661L6.5 13.8304V16.9108H7.72727C7.72727 17.9335 8.54955 18.759 9.56818 18.759C10.5868 18.759 11.4091 17.9335 11.4091 16.9108H15.0909C15.0909 17.9335 15.9132 18.759 16.9318 18.759C17.9505 18.759 18.7727 17.9335 18.7727 16.9108H20V10.134C20 9.45016 19.4539 8.90186 18.7727 8.90186H10.1818V11.3661H8.34091ZM18.7727 10.134V15.6786H18.3064C17.9689 15.3028 17.478 15.0626 16.9318 15.0626C16.3857 15.0626 15.8948 15.3028 15.5573 15.6786H11.4091V10.134H18.7727ZM14.4773 10.7501L12.3295 12.9063L14.4773 15.0626V13.5224H17.5455V12.2902H14.4773V10.7501Z"/></g><defs><clipPath id="clip0"><rect width="13.5" height="13.5" fill="#fff" transform="translate(6.75 6.75)"/></clipPath></defs></svg>