<svg xmlns="http://www.w3.org/2000/svg" width="35" height="35" fill="none" viewBox="0 0 35 35"><circle cx="17.5" cy="17.5" r="17.5" fill="#FFF1DE"/><path fill="#F26144" fill-rule="evenodd" d="M10.9375 12.9424C10.9375 12.6404 11.1823 12.3955 11.4844 12.3955C13.4264 12.3955 15.3183 11.7076 17.1719 10.3174C17.3663 10.1715 17.6337 10.1715 17.8281 10.3174C19.6817 11.7076 21.5736 12.3955 23.5156 12.3955C23.8177 12.3955 24.0625 12.6404 24.0625 12.9424V16.7705C24.0625 20.4172 21.9059 23.0966 17.7004 24.7533C17.5716 24.804 17.4284 24.804 17.2996 24.7533C13.0941 23.0966 10.9375 20.4172 10.9375 16.7705V12.9424ZM18.9548 16.7705C18.9548 17.3811 18.5794 17.904 18.0469 18.1212L18.0469 19.8695C18.0469 20.1715 17.802 20.4164 17.5 20.4164C17.198 20.4164 16.9531 20.1715 16.9531 19.8695L16.9531 18.1238C16.4172 17.9083 16.0388 17.3836 16.0388 16.7705C16.0388 15.9653 16.6915 15.3125 17.4968 15.3125C18.302 15.3125 18.9548 15.9653 18.9548 16.7705Z" clip-rule="evenodd"/></svg>