<svg width="80" height="80" viewBox="0 0 80 80" fill="none" xmlns="http://www.w3.org/2000/svg">
<circle cx="40" cy="40" r="40" fill="#FFDBA8"/>
<path d="M30.6938 58.842H49.2534C51.7964 58.842 53.0474 57.591 53.0474 54.8224V40.4875C53.0474 38.006 52.022 36.7346 49.9097 36.5295V31.6691C49.9097 24.3478 45.0698 20.8 39.9839 20.8C34.8774 20.8 30.0376 24.3478 30.0376 31.6691V36.6115C28.0894 36.9191 26.8999 38.1701 26.8999 40.4875V54.8224C26.8999 57.591 28.1509 58.842 30.6938 58.842ZM33.3599 31.2795C33.3599 26.5217 36.395 23.9787 39.9839 23.9787C43.5522 23.9787 46.5874 26.5217 46.5874 31.2795V36.4885L33.3599 36.5295V31.2795Z" fill="#F26144"/>
</svg>
