<svg xmlns="http://www.w3.org/2000/svg" width="80" height="80" fill="none" viewBox="0 0 80 80"><circle cx="40" cy="40" r="40" fill="#FFDBA8"/><path fill="#F26144" d="M54.777 27.32L48.937 22.76C47.457 21.6 45.657 21 43.777 21H35.337C33.457 21 31.657 21.6 30.177 22.76L24.297 27.32C23.937 27.6 23.897 28.12 24.217 28.48L27.777 32.2C28.057 32.48 28.497 32.52 28.817 32.28L31.897 29.88L31.017 42.88H48.017L47.137 29.92L50.177 32.28C50.497 32.52 50.937 32.48 51.217 32.2L54.817 28.48C55.177 28.12 55.137 27.6 54.777 27.32ZM39.537 25.92C37.617 25.92 36.017 24.6 35.577 22.84H43.497C43.057 24.6 41.457 25.92 39.537 25.92Z"/><path fill="#F26144" d="M30.977 45.08L29.177 57.84C29.097 58.44 29.577 59 30.177 59H37.297C37.817 59 38.257 58.6 38.297 58.08L38.817 52.12C38.857 51.76 39.177 51.48 39.537 51.48C39.897 51.48 40.217 51.76 40.257 52.12L40.737 58.08C40.777 58.6 41.217 59 41.737 59H48.857C49.457 59 49.937 58.44 49.857 57.84L48.057 45.08H30.977Z"/></svg>