<svg width="80" height="80" fill="none" xmlns="http://www.w3.org/2000/svg"><circle cx="40" cy="40" r="40" fill="#FFDBA8"/><path d="M54.777 27.32l-5.84-4.56c-1.48-1.16-3.28-1.76-5.16-1.76h-8.44c-1.88 0-3.68.6-5.16 1.76l-5.88 4.56c-.36.28-.4.8-.08 1.16l3.56 3.72c.28.28.72.32 1.04.08l3.08-2.4-.88 13h17l-.88-12.96 3.04 2.36c.32.24.76.2 1.04-.08l3.6-3.72c.36-.36.32-.88-.04-1.16zm-15.24-1.4c-1.92 0-3.52-1.32-3.96-3.08h7.92a4.081 4.081 0 01-3.96 3.08zM30.977 45.08l-1.8 12.76c-.08.6.4 1.16 1 1.16h7.12c.52 0 .96-.4 1-.92l.52-5.96c.04-.36.36-.64.72-.64s.68.28.72.64l.48 5.96c.04.52.48.92 1 .92h7.12c.6 0 1.08-.56 1-1.16l-1.8-12.76h-17.08z" fill="#F26144"/></svg>